<?xml version="1.0" standalone="no"?><!DOCTYPE svg PUBLIC "-//W3C//DTD SVG 1.1//EN" "http://www.w3.org/Graphics/SVG/1.1/DTD/svg11.dtd"><svg t="1783018367775" class="icon" viewBox="0 0 1024 1024" version="1.1" xmlns="http://www.w3.org/2000/svg" p-id="19403" xmlns:xlink="http://www.w3.org/1999/xlink" width="200" height="200"><path d="M442.688 101.312h138.624V240H442.688V101.312zM368.64 270.72L270.656 368.64 172.608 270.656l98.048-98.048L368.64 270.656z m384.64 98.048L655.36 270.656l98.048-98.048 98.112 98.048L753.28 368.64z m-101.76 282.88q57.728-57.856 57.728-139.52 0-81.792-57.792-139.584T512 314.688q-81.728 0-139.52 57.792-57.792 57.792-57.792 139.52 0 81.728 57.792 139.52 57.792 57.792 139.52 57.792 81.728 0 139.52-57.792zM240 442.624v138.624H101.312V442.688H240z m682.688 138.624H784V442.688h138.688v138.624z m-652.032 270.08l-98.048-98.048 98.048-98.048 98.048 98.048-98.048 98.048z m580.736-98.048l-98.048 98.048-98.048-98.048 98.048-98.048 98.048 98.048z m-270.08 30.656v138.688H442.688V784h138.624z" fill="#fff" p-id="19404"></path></svg>