<?xml version="1.0" standalone="no"?><!DOCTYPE svg PUBLIC "-//W3C//DTD SVG 1.1//EN" "http://www.w3.org/Graphics/SVG/1.1/DTD/svg11.dtd"><svg t="1783016417366" class="icon" viewBox="0 0 1024 1024" version="1.1" xmlns="http://www.w3.org/2000/svg" p-id="15260" xmlns:xlink="http://www.w3.org/1999/xlink" width="200" height="200"><path d="M874.666667 853.333333H149.333333a64 64 0 0 1-64-64V234.666667a64 64 0 0 1 64-64h725.333334a64 64 0 0 1 64 64v554.666666a64 64 0 0 1-64 64z m-44.373334-542.293333a21.333333 21.333333 0 0 0-30.08 0L517.973333 571.733333 235.733333 311.04A21.333333 21.333333 0 0 0 205.653333 341.333333l143.146667 164.48-152.96 174.293334a21.333333 21.333333 0 0 0 30.08 30.08l174.506667-153.173334 91.946666 70.613334c7.04 7.04 17.493333 29.013333 25.813334 24.32 8.106667 4.906667 18.773333-17.28 25.813333-24.32l91.946667-70.613334 162.133333 140.8a21.333333 21.333333 0 0 0 28.8-28.8l-140.8-162.133333L830.293333 341.333333a21.333333 21.333333 0 0 0 0-30.293333z" fill="#000" p-id="15261"></path></svg>