<?xml version="1.0" standalone="no"?><!DOCTYPE svg PUBLIC "-//W3C//DTD SVG 1.1//EN" "http://www.w3.org/Graphics/SVG/1.1/DTD/svg11.dtd"><svg t="1783016158389" class="icon" viewBox="0 0 1024 1024" version="1.1" xmlns="http://www.w3.org/2000/svg" p-id="12893" xmlns:xlink="http://www.w3.org/1999/xlink" width="200" height="200"><path d="M384 512a85.333333 85.333333 0 1 1-85.333333-85.333333 85.426667 85.426667 0 0 1 85.333333 85.333333z m128 128a85.333333 85.333333 0 1 0 85.333333 85.333333 85.426667 85.426667 0 0 0-85.333333-85.333333z m-213.333333 213.333333a85.333333 85.333333 0 1 0 85.333333 85.333334 85.426667 85.426667 0 0 0-85.333333-85.333334z m0-213.333333a85.333333 85.333333 0 1 0 85.333333 85.333333 85.426667 85.426667 0 0 0-85.333333-85.333333z m213.333333 213.333333a85.333333 85.333333 0 1 0 85.333333 85.333334 85.426667 85.426667 0 0 0-85.333333-85.333334z m213.333333-426.666666a85.333333 85.333333 0 1 0 85.333334 85.333333 85.426667 85.426667 0 0 0-85.333334-85.333333z m-213.333333 0a85.333333 85.333333 0 1 0 85.333333 85.333333 85.426667 85.426667 0 0 0-85.333333-85.333333z m213.333333 213.333333a85.333333 85.333333 0 1 0 85.333334 85.333333 85.426667 85.426667 0 0 0-85.333334-85.333333z m0 213.333333a85.333333 85.333333 0 1 0 85.333334 85.333334 85.426667 85.426667 0 0 0-85.333334-85.333334z m112.62-746.113333C750.533333 65.593333 634.773333 42.666667 512 42.666667s-238.533333 22.926667-325.953333 64.553333C93.586667 151.253333 42.666667 211.666667 42.666667 277.333333v53.333334a53.393333 53.393333 0 0 0 53.333333 53.333333h192a53.393333 53.393333 0 0 0 53.333333-53.333333v-53.333334c0-13.253333 16.666667-28.9 43.566667-40.846666C418.493333 221.553333 463.633333 213.333333 512 213.333333s93.506667 8.22 127.1 23.153334C666 248.433333 682.666667 264.08 682.666667 277.333333v53.333334a53.393333 53.393333 0 0 0 53.333333 53.333333h192a53.393333 53.393333 0 0 0 53.333333-53.333333v-53.333334c0-65.666667-50.92-126.08-143.38-170.113333z" fill="currentColor" p-id="12894"></path></svg>