<?xml version="1.0" standalone="no"?><!DOCTYPE svg PUBLIC "-//W3C//DTD SVG 1.1//EN" "http://www.w3.org/Graphics/SVG/1.1/DTD/svg11.dtd"><svg t="1783018347024" class="icon" viewBox="0 0 1024 1024" version="1.1" xmlns="http://www.w3.org/2000/svg" p-id="17472" xmlns:xlink="http://www.w3.org/1999/xlink" width="200" height="200"><path d="M100.672 595.84a36.48 36.48 0 0 1 17.28 4.288c49.728 24 104.256 36.48 159.424 36.416 202.176 0 365.952-164.48 365.952-367.36a365.888 365.888 0 0 0-33.024-152.704 36.736 36.736 0 0 1 48.832-48.96A460.352 460.352 0 0 1 960 499.712C960 753.92 754.688 960 501.504 960c-202.368 0-374.016-131.392-434.944-313.856a36.8 36.8 0 0 1 34.176-50.368h-0.064z" fill="#fff"  p-id="17473"></path></svg>